<?xml version="1.0" encoding="UTF-8"?>
<!DOCTYPE svg PUBLIC "-//W3C//DTD SVG 1.1//EN" "http://www.w3.org/Graphics/SVG/1.1/DTD/svg11.dtd">
<svg xmlns="http://www.w3.org/2000/svg" version="1.1" width="500px" height="500px" style="shape-rendering:geometricPrecision; text-rendering:geometricPrecision; image-rendering:optimizeQuality; fill-rule:evenodd; clip-rule:evenodd" xmlns:xlink="http://www.w3.org/1999/xlink">
<g><path style="opacity:0.997" fill="#e15e0d" d="M 311.5,56.5 C 367.175,53.6657 418.175,67.4991 464.5,98C 416.506,93.3359 373.506,105.669 335.5,135C 375.816,139.665 402.816,160.998 416.5,199C 416.167,199.5 415.833,200 415.5,200.5C 403.735,197.713 392.068,198.046 380.5,201.5C 418.339,214.515 440.505,240.849 447,280.5C 447.667,284.833 447.667,289.167 447,293.5C 435.21,286.013 422.377,282.18 408.5,282C 433.488,300.808 446.155,325.975 446.5,357.5C 447.182,374.103 443.182,389.436 434.5,403.5C 387.82,346.226 327.486,314.559 253.5,308.5C 260.074,346.622 248.741,378.122 219.5,403C 186.98,425.473 153.647,426.806 119.5,407C 113.574,403.079 108.241,398.412 103.5,393C 83.0395,395.821 64.2062,402.988 47,414.5C 51.2331,397.882 59.7331,383.716 72.5,372C 75.5568,369.277 78.8901,366.944 82.5,365C 78.4726,364.669 74.4726,365.002 70.5,366C 58.1986,369.104 46.1986,372.77 34.5,377C 45.9723,358.917 60.3056,343.417 77.5,330.5C 76.4206,245.185 106.754,173.351 168.5,115C 209.779,80.0319 257.445,60.5319 311.5,56.5 Z"/></g>
</svg>
